<svg width="512" height="512" viewBox="0 0 512 512" xmlns="http://www.w3.org/2000/svg">
  <defs>
    <linearGradient id="bgGradient" x1="0%" y1="0%" x2="100%" y2="100%">
      <stop offset="0%" style="stop-color:#22c55e;stop-opacity:1" />
      <stop offset="100%" style="stop-color:#16a34a;stop-opacity:1" />
    </linearGradient>
    <linearGradient id="jeepGradient" x1="0%" y1="0%" x2="100%" y2="100%">
      <stop offset="0%" style="stop-color:#ffffff;stop-opacity:1" />
      <stop offset="100%" style="stop-color:#f8fafc;stop-opacity:1" />
    </linearGradient>
  </defs>
  
  <!-- Background with rounded corners -->
  <rect width="512" height="512" rx="80" ry="80" fill="url(#bgGradient)"/>
  
  <!-- Jeepney Body -->
  <rect x="80" y="180" width="352" height="120" rx="20" ry="20" fill="url(#jeepGradient)" stroke="#15803d" stroke-width="4"/>
  
  <!-- Jeepney Roof -->
  <rect x="100" y="140" width="312" height="50" rx="15" ry="15" fill="url(#jeepGradient)" stroke="#15803d" stroke-width="3"/>
  
  <!-- Front Window -->
  <rect x="120" y="155" width="60" height="30" rx="5" ry="5" fill="#3b82f6" opacity="0.7"/>
  
  <!-- Side Windows -->
  <rect x="200" y="155" width="40" height="25" rx="3" ry="3" fill="#3b82f6" opacity="0.7"/>
  <rect x="260" y="155" width="40" height="25" rx="3" ry="3" fill="#3b82f6" opacity="0.7"/>
  <rect x="320" y="155" width="40" height="25" rx="3" ry="3" fill="#3b82f6" opacity="0.7"/>
  
  <!-- Wheels -->
  <circle cx="140" cy="320" r="35" fill="#374151" stroke="#1f2937" stroke-width="3"/>
  <circle cx="140" cy="320" r="20" fill="#6b7280"/>
  <circle cx="372" cy="320" r="35" fill="#374151" stroke="#1f2937" stroke-width="3"/>
  <circle cx="372" cy="320" r="20" fill="#6b7280"/>
  
  <!-- Card Payment Symbol -->
  <rect x="360" y="100" width="80" height="50" rx="8" ry="8" fill="#ffffff" stroke="#22c55e" stroke-width="3"/>
  <rect x="370" y="115" width="60" height="8" rx="2" ry="2" fill="#22c55e"/>
  <rect x="370" y="130" width="40" height="6" rx="1" ry="1" fill="#9ca3af"/>
  
  <!-- E-JEEP Text -->
  <text x="256" y="420" font-family="Arial, sans-serif" font-size="48" font-weight="bold" text-anchor="middle" fill="#ffffff">E-JEEP</text>
</svg>